<svg width="362" height="276" viewBox="0 0 362 276" fill="none" xmlns="http://www.w3.org/2000/svg">
<g clip-path="url(#clip0_125_326)">
<path d="M275.566 38.3651C272.32 26.5281 298.506 16.3777 305.382 25.91C306.338 24.5548 309.872 23.7316 311.493 24.1474C313.114 24.5631 314.478 25.6024 315.808 26.6085C317.637 28.0136 319.533 29.4686 320.656 31.4891C321.786 33.5011 321.961 36.2449 320.439 37.991C319.234 39.3795 315.675 40.2774 313.863 40.6433C312.599 40.901 311.535 41.1089 310.62 41.2585C309.789 40.0617 309.407 38.6104 309.539 37.1595C308.924 37.5748 308.407 38.1211 308.028 38.7594C307.648 39.3976 307.415 40.112 307.344 40.8511C307.319 41.1588 317.563 78.8482 317.563 78.8482C316.332 79.5487 315.037 80.1305 313.696 80.5859C311.044 76.5318 309.012 72.1039 307.668 67.4491C307.36 70.5616 307.399 73.6989 307.785 76.8028C307.99 78.5433 308.284 80.2722 308.666 81.9827C296.494 84.6101 278.185 83.7454 270.22 72.5708C270.219 72.5246 270.217 72.4783 270.216 72.432C270.21 71.9909 270.05 71.5657 269.765 71.2292C269.48 70.8927 269.087 70.6659 268.653 70.5875C268.218 70.5091 267.771 70.5841 267.386 70.7997C267.001 71.0152 266.703 71.3578 266.543 71.7689C266.35 72.2619 266.172 72.6886 266.013 73.0281C263.693 64.7302 266.695 55.127 275.566 38.3651Z" fill="#2F2E41"/>
<path d="M254.853 236.816V237.204C254.837 237.075 254.837 236.945 254.853 236.816Z" fill="#2F2E41"/>
<path d="M266.773 169.827C267.083 169.743 267.398 169.682 267.716 169.643C267.351 169.703 267.036 169.764 266.773 169.827Z" fill="#2F2E41"/>
<path d="M266.497 169.897C266.58 169.873 266.673 169.85 266.772 169.827C266.68 169.851 266.592 169.868 266.497 169.897Z" fill="#2F2E41"/>
<path d="M354.566 275.604H309.948C309.312 275.096 308.869 274.384 308.695 273.589C308.521 272.793 308.626 271.962 308.993 271.234C310.212 268.439 307.823 265.885 307.823 265.885C307.013 264.935 306.449 263.799 306.182 262.579C305.915 261.359 305.954 260.092 306.294 258.89C307.476 254.762 302.844 243.108 302.844 243.108C302.844 243.108 300.346 258.156 297.286 275.604H254.853C254.142 274.393 253.767 273.014 253.767 271.61C253.767 270.206 254.142 268.828 254.853 267.617C257.326 263.424 254.853 262.62 254.853 262.62C254.853 262.62 252.38 257.928 254.853 254.521C257.326 251.114 254.853 237.204 254.853 237.204C254.946 237.819 255.65 236.7 256.735 234.356C258.386 230.789 260.91 224.374 263.459 216.926C265.282 211.611 267.12 205.763 268.655 200.045H268.659C269.062 198.542 269.443 197.054 269.804 195.579C270.508 192.687 271.112 189.876 271.57 187.237C272.566 181.553 272.894 176.67 272.129 173.494C271.496 170.851 270.109 169.394 267.716 169.643C268.998 169.431 270.877 169.23 273.192 169.04C273.609 169.006 274.042 168.973 274.489 168.935C291.754 167.631 328.798 166.881 328.798 166.881L340.144 187.2L354.514 212.938C354.514 212.938 354.122 247.465 354.566 275.604Z" fill="#2F2E41"/>
<path d="M306.943 79.0618L280.802 73.5167L275.611 83.9643L258.133 94.0836C258.133 94.0836 269.399 140.151 269.335 146.63C269.172 163.079 242.852 199.954 262.732 197.117C282.613 194.28 286.651 182.398 293.033 184.277C298.789 185.971 305.817 193.509 310.522 188.118C315.227 182.727 316.884 188.952 319.859 189.167C321.273 189.27 320.422 182.36 323.979 189.382C327.537 196.404 346.401 186.952 340.007 180.558C329.359 169.91 327.195 91.4138 327.195 91.4138L315.341 87.7665L306.943 79.0618Z" fill="#BC5767"/>
<path d="M257.638 246.358C258.689 245.105 259.209 243.492 259.088 241.862C258.967 240.232 258.215 238.713 256.992 237.629C256.74 237.413 256.47 237.218 256.186 237.046L260.557 215.595L250.453 209.548L247.642 239.58C247.02 240.814 246.825 242.219 247.086 243.576C247.346 244.934 248.049 246.166 249.084 247.082C249.678 247.597 250.368 247.991 251.114 248.239C251.86 248.488 252.648 248.588 253.432 248.532C254.217 248.477 254.983 248.267 255.686 247.916C256.39 247.564 257.017 247.077 257.532 246.483C257.568 246.442 257.603 246.4 257.638 246.358Z" fill="#FFDAE0"/>
<path d="M289.011 133.29C288.948 132.6 288.068 132.287 286.849 131.855C285.625 131.477 284.461 130.926 283.394 130.218C280.695 128.269 281.757 126.23 283.226 123.412C283.513 122.864 283.811 122.294 284.091 121.701C284.922 119.945 283.599 112.703 280.151 100.171C279.089 96.3133 279.092 93.5885 278.358 91.7807C277.627 89.9729 276.163 89.082 272.17 88.8956C267.345 88.652 262.62 90.3316 259.031 93.5661C258.934 93.6518 258.834 93.745 258.737 93.8345C258.554 94.006 258.375 94.1812 258.2 94.3601C254.881 97.699 252.982 102.192 252.899 106.899L252.881 107.701L252.057 145.989L249.742 179.588L246.552 225.872L248.915 225.988L258.345 226.457L259.49 226.513L262.203 215.13L265.468 201.431L266.669 196.399L270.392 180.789L272.129 173.494L273.192 169.04L273.624 167.221L275.734 158.379C275.782 158.193 280.635 139.045 286.23 135.843C288.318 134.65 289.071 133.957 289.011 133.29Z" fill="#BC5767"/>
<path d="M351.786 246.13C350.607 244.997 349.917 243.45 349.862 241.816C349.806 240.182 350.391 238.592 351.491 237.382C351.718 237.14 351.965 236.917 352.23 236.716L345.58 215.858L354.977 208.761L360.996 238.317C361.747 239.478 362.092 240.854 361.979 242.231C361.865 243.608 361.299 244.909 360.368 245.931C359.833 246.507 359.189 246.972 358.474 247.3C357.759 247.627 356.987 247.811 356.201 247.84C355.415 247.869 354.631 247.743 353.894 247.469C353.157 247.195 352.481 246.778 351.905 246.243C351.865 246.206 351.825 246.168 351.786 246.13Z" fill="#FFD3D9"/>
<path d="M356.382 200.872C356.382 200.872 349.054 175.088 351.289 172.297C353.524 169.505 346.923 168.96 349.768 163.762C352.612 158.563 348.686 157.694 348.686 157.694L346.556 145.741L342.747 116.383L342.631 115.51L341.524 106.969C341.214 104.53 340.416 102.177 339.177 100.053C337.937 97.9294 336.283 96.0771 334.311 94.6072C334.211 94.5301 334.108 94.4561 334.005 94.382C333.536 94.0445 333.057 93.7317 332.568 93.4438C328.912 91.287 324.618 90.4715 320.426 91.1376C312.527 92.3678 314.986 95.3135 313.704 103.205C311.623 116.036 311.082 123.377 312.097 125.036C312.439 125.594 312.799 126.129 313.141 126.642C314.905 129.289 316.18 131.199 313.705 133.431C312.719 134.247 311.621 134.919 310.446 135.426C309.283 135.989 308.44 136.393 308.452 137.085C308.465 137.756 309.287 138.362 311.489 139.323C314.157 140.49 317.023 144.905 319.371 149.415C321.233 153.051 322.894 156.785 324.346 160.603L344.522 217.346L347.813 226.6L348.948 226.421L358.27 224.943L360.608 224.573L356.382 200.872Z" fill="#BC5767"/>
<path d="M295.914 73.1249C307.692 73.1249 317.241 63.5765 317.241 51.7979C317.241 40.0193 307.692 30.4709 295.914 30.4709C284.135 30.4709 274.587 40.0193 274.587 51.7979C274.587 63.5765 284.135 73.1249 295.914 73.1249Z" fill="#FFDAE0"/>
<path d="M263.926 40.028C260.679 28.191 286.865 18.0406 293.742 27.5729C294.698 26.2177 298.231 25.3945 299.853 25.8103C301.474 26.226 302.838 27.2653 304.168 28.2714C305.997 29.6765 307.893 31.1315 309.015 33.1519C310.146 35.164 310.321 37.9078 308.799 39.6538C307.594 41.0424 304.035 41.9403 302.222 42.3062C300.959 42.5639 299.894 42.7718 298.98 42.9214C298.149 41.7245 297.766 40.2733 297.899 38.8224C297.283 39.2377 296.767 39.784 296.388 40.4223C296.008 41.0605 295.775 41.7749 295.704 42.514C295.679 42.8217 305.922 80.5111 305.922 80.5111C304.692 81.2115 303.397 81.7934 302.056 82.2488C299.403 78.1947 297.372 73.7668 296.028 69.112C295.719 72.2245 295.758 75.3618 296.145 78.4657C296.35 80.2062 296.644 81.9351 297.026 83.6456C284.854 86.273 266.545 85.4083 258.58 74.2337C258.578 74.1875 258.577 74.1412 258.576 74.0949C258.57 73.6538 258.41 73.2286 258.125 72.8921C257.84 72.5556 257.446 72.3288 257.012 72.2504C256.578 72.172 256.13 72.247 255.745 72.4626C255.361 72.6781 255.063 73.0207 254.903 73.4318C254.709 73.9248 254.531 74.3516 254.373 74.691C252.053 66.3931 255.055 56.7899 263.926 40.028Z" fill="#2F2E41"/>
<path d="M76.6836 25.9105C76.2873 26.834 64.0679 26.7351 63.5083 27.5574C59.1934 33.9063 74.7478 60.9191 70.4329 67.2762L69.8318 67.9926C71.2394 67.3439 72.5917 66.581 73.8749 65.7116C73.9902 63.1095 74.1055 60.4991 74.229 57.897C75.5214 59.5504 76.5646 61.3842 77.3252 63.3401C78.3298 62.6319 79.1539 61.3191 83.4599 58.737C85.2032 56.822 87.2129 55.1677 89.4272 53.8249L76.6836 25.9105Z" fill="#2F2E41"/>
<path d="M85.5567 77.9429C84.2083 77.0645 82.6698 76.5203 81.069 76.3556C79.4681 76.1908 77.8511 76.4102 76.352 76.9955C74.8529 77.5808 73.515 78.5151 72.4493 79.721C71.3836 80.9269 70.6209 82.3696 70.2244 83.9293L51.6553 132.313L19.7372 114.192C19.5971 112.109 18.8009 110.124 17.4629 108.522C16.1249 106.919 14.3137 105.782 12.2893 105.272C10.2648 104.763 8.13106 104.908 6.19398 105.686C4.2569 106.464 2.61605 107.836 1.50675 109.604C0.397459 111.373 -0.123283 113.447 0.0192151 115.53C0.161713 117.613 0.960132 119.597 2.29996 121.198C3.63978 122.798 5.45217 123.934 7.47719 124.441C9.50222 124.948 11.6358 124.801 13.572 124.021C20.2937 131.195 49.4346 160.608 61.4988 149.115C71.6393 139.455 86.2732 102.017 89.7959 89.0885C90.3602 87.0212 90.2537 84.8281 89.4919 82.8251C88.7301 80.8222 87.3522 79.1127 85.5567 77.9429Z" fill="#FFB6B6"/>
<path d="M50.6891 151.143L56.5489 177.628L99.398 181.504L103.336 158.442L50.6891 151.143Z" fill="#FFB6B6"/>
<path d="M116.142 219.062C116.122 219.441 116.099 219.817 116.071 220.197C115.66 225.685 115.191 232.014 114.682 238.95C113.879 249.957 112.983 262.491 112.079 275.604H22.2025L39.6331 223.212C39.6331 223.212 46.6711 219.337 43.088 212.828C39.5048 206.319 46.5552 211.506 46.6208 202.209C46.6863 192.913 53.0041 183.023 53.0041 183.023L54.0414 168.947L54.6325 168.959L101.404 169.738L102.258 169.753L103.694 181.837C112.417 192.216 116.866 205.524 116.142 219.062Z" fill="#2F2E41"/>
<path d="M77.4326 65.1072L98.7606 64.0085L108.667 79.6617C108.667 79.6617 127.306 82.7779 126.014 104.742C124.722 126.705 103.336 145.978 103.336 145.978L104.25 142.844L102.662 147.381L102.866 149.928L105.032 152.626L105.255 155.416L103.336 159.83C103.585 160.23 103.718 160.692 103.718 161.164C103.718 161.635 103.587 162.097 103.338 162.497C103.089 162.898 102.732 163.22 102.309 163.428C101.886 163.636 101.413 163.722 100.944 163.675L70.127 160.586C69.4253 158.656 68.8624 156.347 66.05 160.191L63.1469 159.91L51.079 158.741L50.3686 156.153C49.965 154.683 49.9021 153.14 50.1847 151.642C50.4673 150.144 51.088 148.73 51.9994 147.508C50.9512 144.225 51.2257 140.663 52.7646 137.58L52.8223 137.465L54.1039 136.396C54.1039 136.396 40.0832 115.332 56.1785 99.4671L62.6384 88.4853L69.8665 79.6667L77.4326 65.1072Z" fill="#62E59D"/>
<path d="M82.7408 55.8671C93.9106 55.8671 102.966 46.8122 102.966 35.6423C102.966 24.4724 93.9106 15.4174 82.7408 15.4174C71.5709 15.4174 62.5159 24.4724 62.5159 35.6423C62.5159 46.8122 71.5709 55.8671 82.7408 55.8671Z" fill="#FFB6B6"/>
<path d="M98.1017 64.7776C96.4547 63.4014 95.3083 61.5198 94.8408 59.4252C94.4667 61.9685 94.5644 64.5589 95.129 67.0668C94.0338 67.8902 92.9716 68.6726 91.9669 69.3807C91.2063 67.4249 90.1631 65.591 88.8707 63.9377C88.7472 66.5398 88.6319 69.1502 88.5166 71.7523C87.2334 72.6216 85.8812 73.3845 84.4735 74.0332L85.0746 73.3169C89.3895 66.9597 78.2234 55.2585 82.5383 48.9096C83.7488 47.1309 78.2811 33.0745 74.1144 32.4405C70.4088 31.8805 70.5653 32.951 66.975 33.7333C66.6022 32.1784 66.0234 30.6801 65.254 29.2784C65.4588 30.8404 65.4115 32.4251 65.114 33.9721C63.8377 34.0215 62.8335 33.2082 61.4744 33.0004C52.8033 31.6747 53.6844 22.2955 56.0972 19.3228C58.5181 16.3584 66.5551 15.469 70.2606 14.5056C70.5982 14.1762 71.364 14.3821 71.7017 14.0692C78.8032 7.57 88.3009 6.49369 96.848 9.37426C105.963 12.4462 111.646 18.3917 114.563 27.5574L115.399 34.8923C116.15 37.2507 115.205 48.2242 114.563 50.6142C112.063 59.9044 106.741 55.2667 98.1017 64.7776Z" fill="#2F2E41"/>
<path d="M127.591 160.598L126.795 98.5856C126.754 95.9585 125.681 93.453 123.808 91.6098C121.936 89.7667 119.414 88.7336 116.786 88.7336C115.427 88.7336 114.082 89.0105 112.833 89.5472C111.584 90.084 110.458 90.8695 109.523 91.8558C108.587 92.8421 107.863 94.0085 107.393 95.284C106.923 96.5595 106.718 97.9173 106.79 99.2746L109.592 163.665L109.645 202.862C107.994 203.563 106.598 204.754 105.647 206.275C104.697 207.797 104.238 209.573 104.332 211.365C104.427 213.156 105.071 214.875 106.176 216.287C107.281 217.7 108.795 218.738 110.511 219.261C112.226 219.783 114.062 219.765 115.767 219.208C117.472 218.651 118.964 217.583 120.041 216.149C121.118 214.714 121.727 212.983 121.786 211.19C121.845 209.398 121.35 207.63 120.37 206.128L127.591 160.598Z" fill="#FFB6B6"/>
<path d="M231.974 240.827C231.974 240.827 230.743 262.974 230.177 275.605H187.782C186.91 264.11 186.616 255.665 186.616 255.665L184.296 275.605H141.444L138.787 238.675L151.625 206.851C151.625 206.851 221.2 202.026 227.654 208.147C234.103 214.264 231.974 240.827 231.974 240.827Z" fill="#2F2E41"/>
<path d="M194.485 54.5185C207.274 54.5185 217.642 44.1506 217.642 31.3613C217.642 18.5719 207.274 8.20413 194.485 8.20413C181.695 8.20413 171.328 18.5719 171.328 31.3613C171.328 44.1506 181.695 54.5185 194.485 54.5185Z" fill="#FFB6B6"/>
<path d="M221.477 23.8367C219.098 24.9212 217.557 32.7763 215.688 30.9501C213.818 29.124 213.943 26.7476 211.422 26.0736C209.387 25.5271 207.196 26.1517 205.34 27.1369C205.008 27.3107 204.687 27.4997 204.374 27.6877C204.167 27.5495 203.961 27.4195 203.74 27.2996C202.08 26.4109 200.141 26.1929 198.325 26.6905C199.76 27.1713 201.008 28.0911 201.892 29.32C201.271 29.7364 200.641 30.1539 199.998 30.5238C194.619 33.6275 186.966 26.8787 181.305 24.3433C184.851 30.9975 183.105 33.7533 180.026 40.6352L179.92 41.0271C180.095 39.3023 174.758 38.0169 175.067 40.4449C175.287 42.1688 176.779 46.0005 177.614 47.5226C171.662 40.6404 167.595 32.2185 168.453 23.5305C168.64 21.7055 168.584 19.7798 169.525 18.1958C170.467 16.6199 172.432 15.5141 174.17 16.115C174.023 13.3443 174.629 10.5855 175.925 8.13191C177.22 5.67829 179.156 3.62156 181.527 2.18037C183.898 0.739189 186.615 -0.0325803 189.39 -0.0528876C192.164 -0.0731949 194.892 0.658723 197.284 2.06505C199.506 3.36914 201.362 5.21354 203.399 6.80448C205.436 8.39541 207.784 9.78217 210.367 9.91351C212.005 9.99253 213.788 9.5925 215.196 10.4412C216.827 11.4259 217.106 13.4876 217.351 15.4715C215.896 15.6149 214.518 16.1887 213.391 17.1195C214.896 16.966 216.411 17.291 217.72 18.0482C217.745 18.0594 217.769 18.0729 217.791 18.0885C218.653 21.3672 218.565 22.094 221.477 23.8367Z" fill="#2F2E41"/>
<path d="M141.546 218.055C161.267 194.972 154.606 165.612 146.779 135.975L148.268 92.1923C148.341 90.0446 148.93 87.946 149.985 86.0738C151.04 84.2015 152.529 82.6105 154.328 81.4352L174.46 68.2831L182.296 56.954L203.895 59.1139L215.872 71.7805L229.13 81.9017C232.459 84.443 234.992 87.883 236.43 91.8163C237.868 95.7496 238.152 100.012 237.248 104.101L224.561 161.477C224.561 161.477 229.867 191.221 226.629 194.506C223.391 197.791 215.049 194.508 221.665 198.196C229.604 202.621 236.823 201.804 232.806 205.822C228.788 209.84 233.873 215.426 233.873 215.426L141.546 218.055Z" fill="#0077B6"/>
<path d="M207.779 70.0154C207.779 70.0154 244.244 84.583 244.551 93.5143C244.858 102.446 244.208 107.858 245.815 143.622L239.342 239.253C239.342 239.253 214.011 242.965 216.948 237.414C219.884 231.864 219.167 229.115 219.167 229.115C219.167 229.115 213.949 226.65 215.73 220.024C217.51 213.397 212.967 179.683 212.967 179.683L212.632 119.73L207.779 70.0154Z" fill="#0077B6"/>
<path d="M149.978 251.602L153.265 228.18L140.147 224.435L137.552 249.322C136.467 250.318 135.68 251.596 135.282 253.014C134.883 254.432 134.887 255.933 135.295 257.348C135.702 258.764 136.496 260.038 137.588 261.026C138.68 262.015 140.026 262.68 141.474 262.946C142.923 263.212 144.417 263.068 145.789 262.531C147.161 261.994 148.355 261.086 149.239 259.907C150.122 258.729 150.659 257.327 150.79 255.86C150.92 254.393 150.639 252.918 149.978 251.602Z" fill="#FFB6B6"/>
<path d="M174.952 72.5053C174.952 72.5053 137.613 84.6582 136.722 93.5503C135.832 102.442 136.127 107.886 132.186 143.468L132.394 239.317C132.394 239.317 157.428 244.677 154.86 238.947C152.293 233.216 153.189 230.52 153.189 230.52C153.189 230.52 158.556 228.402 157.213 221.673C155.869 214.944 162.607 181.599 162.607 181.599L166.86 121.796L174.952 72.5053Z" fill="#0077B6"/>
<path d="M220.993 250.362L219.243 226.775L232.578 223.895L233.541 248.899C234.559 249.963 235.26 251.29 235.565 252.731C235.871 254.172 235.768 255.67 235.269 257.056C234.77 258.441 233.894 259.66 232.74 260.576C231.586 261.491 230.2 262.066 228.737 262.237C227.274 262.407 225.792 262.167 224.458 261.541C223.125 260.916 221.992 259.931 221.188 258.697C220.383 257.463 219.939 256.03 219.904 254.557C219.87 253.085 220.247 251.632 220.993 250.362Z" fill="#FFB6B6"/>
</g>
<defs>
<clipPath id="clip0_125_326">
<rect width="362" height="275.605" fill="white"/>
</clipPath>
</defs>
</svg>
